<?xml version="1.0" standalone="no"?><!DOCTYPE svg PUBLIC "-//W3C//DTD SVG 1.1//EN" "http://www.w3.org/Graphics/SVG/1.1/DTD/svg11.dtd"><svg t="1510057288352" class="icon" style="" viewBox="0 0 1024 1024" version="1.1" xmlns="http://www.w3.org/2000/svg" p-id="1386" xmlns:xlink="http://www.w3.org/1999/xlink" width="64" height="64"><defs><style type="text/css"></style></defs><path d="M944.7 435.7c11.5 13.5 16.4 31.2 13.6 48.6 0 0.2 0 0.4-0.1 0.5-10.8 65.6-41.5 125.2-88.7 172.3-25.2 25.2-54.2 45.7-85.7 61.1-31.5 15.3-65.5 25.4-100.7 29.6-6 12.4-16.4 22.5-29.4 27.9l-169 71.2c-6.1 2.1-12 1-14.2 0.1-4.6-1.9-8.2-5.5-10.1-10-12.7-30.1-13.1-62.3-3.6-91.1-69.4-11.2-133.1-45.2-181.4-97.4-54.5-58.8-84.5-135.4-84.5-215.7V328.5c0-4.3 0.6-8.5 1.6-12.5h-32.6c-52.8 0-95.7-42.9-95.7-95.7v-25.6c0-10.3 8.3-18.6 18.6-18.6h55.8c41 0 78.3 20.9 100.4 53.4 22.1-32.4 59.4-53.4 100.4-53.4h55.8c10.3 0 18.6 8.3 18.6 18.6v25.6c0 52.8-42.9 95.7-95.7 95.7h-29.5c0.3 1.1 0.6 2.2 0.8 3.3 10.4 55 58.7 95 114.9 95h494.2c17.7 0 34.6 7.8 46.2 21.4z" fill="#663333" p-id="1387"></path><path d="M916.4 459.8c1.6 1.9 2.9 4 3.8 6.2-133.9 23.7-240.8 126.5-268.9 260.7 0 0.2-0.1 0.4-0.1 0.7-1.4 6.3-5.8 11.6-11.8 14.1l-150.2 63.3c-8.5-42.4 13.7-86.5 55.1-104 9.5-4 13.9-14.9 9.9-24.3-4-9.5-14.9-13.9-24.3-9.9-23 9.7-41.8 25.3-55.3 44.3-65.8-7.8-126.5-38.7-171.9-87.6-48.2-51.9-74.7-119.5-74.7-190.4V328.5c0-3.4 1.3-6.5 3.6-8.8 2.4-2.4 5.5-3.7 8.9-3.7 6 0 11.2 4.3 12.3 10.3 13.7 72.6 77.4 125.2 151.4 125.2h494.2c6.9-0.1 13.5 3 18 8.3z" fill="#4EC8D8" p-id="1388"></path><path d="M916 504.6c-12.5 47.6-37.4 90.9-72.8 126.2-40.7 40.7-92.9 67.8-149 77.7C725.6 605.4 810.6 527.3 916 504.6z" fill="#FFFFFF" p-id="1389"></path><path d="M888.4 299.9c0 10.3-8.3 18.6-18.6 18.6s-18.6-8.3-18.6-18.6c0-19.2-15.6-34.8-34.8-34.8-19.1 0-34.7 15.6-34.7 34.7v64.1c0 10.3-8.3 18.6-18.6 18.6s-18.6-8.3-18.6-18.6c0 0 0.1-65.6 0.1-66.4h-0.2c-1.2-18.1-16.3-32.4-34.7-32.4-19.2 0-34.8 15.6-34.8 34.8 0 10.3-8.3 18.6-18.6 18.6s-18.6-8.3-18.6-18.6c0-39.7 32.3-71.9 71.9-71.9 21.2 0 40.2 9.2 53.4 23.7 13.2-14.6 32.2-23.7 53.3-23.7 39.8 0 72.1 32.3 72.1 71.9zM669.5 491.8c12.2 0 22.1 9.9 22.1 22.1 0 12.2-9.9 22.1-22.1 22.1-12.2 0-22.1-9.9-22.1-22.1 0-12.2 9.9-22.1 22.1-22.1zM434.3 611c9.5 3.9 14 14.8 10.1 24.3-3 7.2-9.9 11.5-17.2 11.5-2.4 0-4.8-0.5-7.1-1.4-30.8-12.7-57.9-31.6-80.7-56.2-14.7-15.8-27-33.5-36.7-52.7-4.6-9.2-0.9-20.3 8.2-25 9.2-4.6 20.3-0.9 25 8.2 8.1 16.1 18.5 30.9 30.8 44.2 19.1 20.6 41.8 36.4 67.6 47.1z" fill="#663333" p-id="1390"></path><path d="M376.6 213.3v7c0 32.3-26.2 58.5-58.5 58.5h-60.8c8.6-38 42.9-65.5 82-65.5h37.3zM220.6 278.8h-60.8c-32.3 0-58.5-26.2-58.5-58.5v-7h37.2c39.2 0 73.6 27.5 82.1 65.5z" fill="#4EC8D8" p-id="1391"></path></svg>